<?xml version="1.0" encoding="UTF-8" standalone="no"?>
<!-- Created with Inkscape (http://www.inkscape.org/) -->

<svg
   version="1.1"
   id="svg1"
   width="243.89333"
   height="229.93333"
   viewBox="0 0 243.89333 229.93333"
   sodipodi:docname="tshirt5v.eps"
   xmlns:inkscape="http://www.inkscape.org/namespaces/inkscape"
   xmlns:sodipodi="http://sodipodi.sourceforge.net/DTD/sodipodi-0.dtd"
   xmlns="http://www.w3.org/2000/svg"
   xmlns:svg="http://www.w3.org/2000/svg">
  <defs
     id="defs1" />
  <sodipodi:namedview
     id="namedview1"
     pagecolor="#ffffff"
     bordercolor="#000000"
     borderopacity="0.25"
     inkscape:showpageshadow="2"
     inkscape:pageopacity="0.0"
     inkscape:pagecheckerboard="0"
     inkscape:deskcolor="#d1d1d1">
    <inkscape:page
       x="0"
       y="0"
       inkscape:label="1"
       id="page1"
       width="243.89333"
       height="229.93333"
       margin="0"
       bleed="0" />
  </sodipodi:namedview>
  <g
     id="g1"
     inkscape:groupmode="layer"
     inkscape:label="1">
    <path
       id="path1"
       d="m 1792.99,1492.77 -112.17,-356.13 112.17,356.13"
       style="fill:#ffffff;fill-opacity:1;fill-rule:nonzero;stroke:none"
       transform="matrix(0.13333333,0,0,-0.13333333,0,229.93333)" />
    <path
       id="path2"
       d="m 1712.09,1139.07 107.89,343.29 -407.05,177.17 -310.17,49.65 c -42.29,-44.14 -110.947,-72.33 -188.205,-72.33 -76.61,0 -145.282,28.19 -188.192,72.33 L 415.59,1659.53 9.17578,1482.36 117.055,1139.07 c 0,0 177.168,-5.52 229.883,-49.66 0,0 35.546,-602.555 -25.137,-1081.91 H 1507.35 c -61.31,479.355 -25.14,1081.91 -25.14,1081.91 52.71,44.14 229.88,49.66 229.88,49.66"
       style="fill:#ffffff;fill-opacity:1;fill-rule:nonzero;stroke:none"
       transform="matrix(0.13333333,0,0,-0.13333333,0,229.93333)" />
    <path
       id="path3"
       d="m 1712.09,1139.07 107.89,343.29 -407.05,177.17 -310.17,49.65 c -42.29,-44.14 -110.947,-72.33 -188.205,-72.33 -76.61,0 -145.282,28.19 -188.192,72.33 L 415.59,1659.53 9.17578,1482.36 117.055,1139.07 c 0,0 177.168,-5.52 229.883,-49.66 0,0 35.546,-602.555 -25.137,-1081.91 H 1507.35 c -61.31,479.355 -25.14,1081.91 -25.14,1081.91 52.71,44.14 229.88,49.66 229.88,49.66 z"
       style="fill:none;stroke:#231f20;stroke-width:15;stroke-linecap:butt;stroke-linejoin:miter;stroke-miterlimit:4;stroke-dasharray:none;stroke-opacity:1"
       transform="matrix(0.13333333,0,0,-0.13333333,0,229.93333)" />
    <path
       id="path4"
       d="m 1412.93,1659.53 c 0,0 -80.29,-257.46 69.28,-570.12"
       style="fill:none;stroke:#231f20;stroke-width:15;stroke-linecap:butt;stroke-linejoin:miter;stroke-miterlimit:4;stroke-dasharray:none;stroke-opacity:1"
       transform="matrix(0.13333333,0,0,-0.13333333,0,229.93333)" />
    <path
       id="path5"
       d="M 1792.99,1492.77 1680.82,1136.64 Z"
       style="fill:none;stroke:#231f20;stroke-width:15;stroke-linecap:butt;stroke-linejoin:miter;stroke-miterlimit:4;stroke-dasharray:none;stroke-opacity:1"
       transform="matrix(0.13333333,0,0,-0.13333333,0,229.93333)" />
    <path
       id="path6"
       d="m 415.59,1659.53 c 0,0 80.305,-257.46 -68.652,-570.12"
       style="fill:none;stroke:#231f20;stroke-width:15;stroke-linecap:butt;stroke-linejoin:miter;stroke-miterlimit:4;stroke-dasharray:none;stroke-opacity:1"
       transform="matrix(0.13333333,0,0,-0.13333333,0,229.93333)" />
    <path
       id="path7"
       d="m 914.555,1636.85 c 77.258,0 145.915,28.19 188.205,72.33 l -44.74,7.35 c -35.56,-26.98 -86.434,-43.52 -143.465,-43.52 -56.375,0 -107.266,16.54 -143.426,43.52 l -44.766,-7.35 c 42.91,-44.14 111.582,-72.33 188.192,-72.33"
       style="fill:#ffffff;fill-opacity:1;fill-rule:nonzero;stroke:none"
       transform="matrix(0.13333333,0,0,-0.13333333,0,229.93333)" />
    <path
       id="path8"
       d="m 914.555,1636.85 c 77.258,0 145.915,28.19 188.205,72.33 l -44.74,7.35 c -35.56,-26.98 -86.434,-43.52 -143.465,-43.52 -56.375,0 -107.266,16.54 -143.426,43.52 l -44.766,-7.35 c 42.91,-44.14 111.582,-72.33 188.192,-72.33 z"
       style="fill:none;stroke:#231f20;stroke-width:15;stroke-linecap:butt;stroke-linejoin:miter;stroke-miterlimit:4;stroke-dasharray:none;stroke-opacity:1"
       transform="matrix(0.13333333,0,0,-0.13333333,0,229.93333)" />
    <path
       id="path9"
       d="M 34.3008,1492.77 145.863,1136.64 34.3008,1492.77"
       style="fill:#ffffff;fill-opacity:1;fill-rule:nonzero;stroke:#231f20;stroke-width:15;stroke-linecap:butt;stroke-linejoin:miter;stroke-miterlimit:4;stroke-dasharray:none;stroke-opacity:1"
       transform="matrix(0.13333333,0,0,-0.13333333,0,229.93333)" />
    <path
       id="path10"
       d="M 324.254,31.3945 H 1504.27 324.254"
       style="fill:#ffffff;fill-opacity:1;fill-rule:nonzero;stroke:none"
       transform="matrix(0.13333333,0,0,-0.13333333,0,229.93333)" />
    <path
       id="path11"
       d="M 324.254,31.3945 H 1504.27 Z"
       style="fill:none;stroke:#231f20;stroke-width:15;stroke-linecap:butt;stroke-linejoin:miter;stroke-miterlimit:4;stroke-dasharray:none;stroke-opacity:1"
       transform="matrix(0.13333333,0,0,-0.13333333,0,229.93333)" />
  </g>
</svg>
